<svg width="253" height="189" viewBox="0 0 253 189" fill="none" xmlns="http://www.w3.org/2000/svg">
<path fill-rule="evenodd" clip-rule="evenodd" d="M70.9067 124.2C101.676 124.2 126.619 97.6057 126.619 64.8C126.619 31.9942 101.676 5.39996 70.9067 5.39996C40.1376 5.39996 15.1942 31.9942 15.1942 64.8C15.1942 97.6057 40.1376 124.2 70.9067 124.2ZM70.9069 105.3C91.8859 105.3 108.893 87.1675 108.893 64.8C108.893 42.4324 91.8859 24.3 70.9069 24.3C49.9279 24.3 32.9211 42.4324 32.9211 64.8C32.9211 87.1675 49.9279 105.3 70.9069 105.3Z" fill="#C10FFF"/>
<path fill-rule="evenodd" clip-rule="evenodd" d="M182.332 124.2C213.101 124.2 238.044 97.6056 238.044 64.7999C238.044 31.9942 213.101 5.3999 182.332 5.3999C151.563 5.3999 126.619 31.9942 126.619 64.7999C126.619 97.6056 151.563 124.2 182.332 124.2ZM182.332 105.3C203.311 105.3 220.318 87.1674 220.318 64.7999C220.318 42.4324 203.311 24.2999 182.332 24.2999C161.353 24.2999 144.346 42.4324 144.346 64.7999C144.346 87.1674 161.353 105.3 182.332 105.3Z" fill="#C10FFF"/>
<ellipse cx="70.9069" cy="64.7999" rx="15.1943" ry="16.2" fill="#C10FFF"/>
<ellipse cx="182.332" cy="64.7999" rx="15.1943" ry="16.2" fill="#C10FFF"/>
<path d="M126.619 189L84.9502 126.225H168.289L126.619 189Z" fill="#C10FFF"/>
<path d="M126.619 64.8L168.288 127.575H84.9502L126.619 64.8Z" fill="#C10FFF"/>
<path d="M3.00316 10.1402L37.0067 18.1057L31.8049 30.9926L3.00316 10.1402Z" fill="#C10FFF"/>
<path d="M20.7298 7.44025L54.7334 15.4058L49.5316 28.2927L20.7298 7.44025Z" fill="#C10FFF"/>
<path d="M249.997 10.1402L215.993 18.1057L221.195 30.9926L249.997 10.1402Z" fill="#C10FFF"/>
<path d="M232.27 7.44025L198.266 15.4058L203.468 28.2927L232.27 7.44025Z" fill="#C10FFF"/>
</svg>
